HIERARCHY
ROOT hip
{
  OFFSET 0 0 0
  CHANNELS 6 Xposition Yposition Zposition Zrotation Yrotation Xrotation
  JOINT abdomen
  {
    OFFSET 0 20.6881 -0.73152
    CHANNELS 3 Zrotation Xrotation Yrotation
    JOINT chest
    {
      OFFSET 0 11.7043 -0.48768
      CHANNELS 3 Zrotation Xrotation Yrotation
      JOINT neck
      {
        OFFSET 0 22.1894 -2.19456
        CHANNELS 3 Zrotation Xrotation Yrotation
        JOINT head
        {
          OFFSET -0.24384 7.07133 1.2192
          CHANNELS 3 Zrotation Xrotation Yrotation
          JOINT leftEye
          {
            OFFSET 4.14528 8.04674 8.04672
            CHANNELS 3 Zrotation Xrotation Yrotation
            End Site
            {
              OFFSET 1 0 0
            }
          }
          JOINT rightEye
          {
            OFFSET -3.6576 8.04674 8.04672
            CHANNELS 3 Zrotation Xrotation Yrotation
            End Site
            {
              OFFSET 1 0 0
            }
          }
        }
      }
      JOINT rCollar
      {
        OFFSET -2.68224 19.2634 -4.8768
        CHANNELS 3 Zrotation Xrotation Yrotation
        JOINT rShldr
        {
          OFFSET -8.77824 -1.95073 1.46304
          CHANNELS 3 Zrotation Xrotation Yrotation
          JOINT rForeArm
          {
            OFFSET -28.1742 -1.7115 0.48768
            CHANNELS 3 Zrotation Xrotation Yrotation
            JOINT rHand
            {
              OFFSET -22.5879 0.773209 7.07136
              CHANNELS 3 Zrotation Xrotation Yrotation
              JOINT rThumb1
              {
                OFFSET -1.2192 -0.487915 3.41376
                CHANNELS 3 Zrotation Xrotation Yrotation
                JOINT rThumb2
                {
                  OFFSET -3.37035 -0.52449 3.41376
                  CHANNELS 3 Zrotation Xrotation Yrotation
                  End Site
                  {
                    OFFSET -1.78271 -1.18214 1.43049
                  }
                }
              }
              JOINT rIndex1
              {
                OFFSET -7.75947 0.938293 5.60832
                CHANNELS 3 Zrotation Xrotation Yrotation
                JOINT rIndex2
                {
                  OFFSET -2.54057 -0.884171 1.56538
                  CHANNELS 3 Zrotation Xrotation Yrotation
                  End Site
                  {
                    OFFSET -1.62519 -0.234802 1.16502
                  }
                }
              }
              JOINT rMid1
              {
                OFFSET -8.24714 1.18213 3.41376
                CHANNELS 3 Zrotation Xrotation Yrotation
                JOINT rMid2
                {
                  OFFSET -3.10165 -0.590103 1.0647
                  CHANNELS 3 Zrotation Xrotation Yrotation
                  End Site
                  {
                    OFFSET -2.48547 -0.328903 0.83742
                  }
                }
              }
              JOINT rRing1
              {
                OFFSET -8.82822 0.546677 1.51678
                CHANNELS 3 Zrotation Xrotation Yrotation
                JOINT rRing2
                {
                  OFFSET -2.60934 -0.819778 -0.0198488
                  CHANNELS 3 Zrotation Xrotation Yrotation
                  End Site
                  {
                    OFFSET -2.33842 -0.294052 0.168128
                  }
                }
              }
              JOINT rPinky1
              {
                OFFSET -8.27202 -0.0477905 -0.4584
                CHANNELS 3 Zrotation Xrotation Yrotation
                JOINT rPinky2
                {
                  OFFSET -1.82734 -0.647385 -0.700984
                  CHANNELS 3 Zrotation Xrotation Yrotation
                  End Site
                  {
                    OFFSET -1.69225 -0.51767 -0.607171
                  }
                }
              }
            }
          }
        }
      }
      JOINT lCollar
      {
        OFFSET 2.68224 19.2634 -4.8768
        CHANNELS 3 Zrotation Xrotation Yrotation
        JOINT lShldr
        {
          OFFSET 8.77824 -1.95073 1.46304
          CHANNELS 3 Zrotation Xrotation Yrotation
          JOINT lForeArm
          {
            OFFSET 28.1742 -1.7115 0.48768
            CHANNELS 3 Zrotation Xrotation Yrotation
            JOINT lHand
            {
              OFFSET 22.5879 0.773209 7.07136
              CHANNELS 3 Zrotation Xrotation Yrotation
              JOINT lThumb1
              {
                OFFSET 1.2192 -0.487915 3.41376
                CHANNELS 3 Zrotation Xrotation Yrotation
                JOINT lThumb2
                {
                  OFFSET 3.37035 -0.52449 3.41376
                  CHANNELS 3 Zrotation Xrotation Yrotation
                  End Site
                  {
                    OFFSET 1.78271 -1.18214 1.43049
                  }
                }
              }
              JOINT lIndex1
              {
                OFFSET 7.75947 0.938293 5.60832
                CHANNELS 3 Zrotation Xrotation Yrotation
                JOINT lIndex2
                {
                  OFFSET 2.54057 -0.884171 1.56538
                  CHANNELS 3 Zrotation Xrotation Yrotation
                  End Site
                  {
                    OFFSET 1.62519 -0.234802 1.16502
                  }
                }
              }
              JOINT lMid1
              {
                OFFSET 8.24714 1.18213 3.41376
                CHANNELS 3 Zrotation Xrotation Yrotation
                JOINT lMid2
                {
                  OFFSET 3.10165 -0.590103 1.0647
                  CHANNELS 3 Zrotation Xrotation Yrotation
                  End Site
                  {
                    OFFSET 2.48547 -0.328903 0.83742
                  }
                }
              }
              JOINT lRing1
              {
                OFFSET 8.82822 0.546677 1.51678
                CHANNELS 3 Zrotation Xrotation Yrotation
                JOINT lRing2
                {
                  OFFSET 2.60934 -0.819778 -0.0198488
                  CHANNELS 3 Zrotation Xrotation Yrotation
                  End Site
                  {
                    OFFSET 2.33842 -0.294052 0.168128
                  }
                }
              }
              JOINT lPinky1
              {
                OFFSET 8.27202 -0.0477905 -0.4584
                CHANNELS 3 Zrotation Xrotation Yrotation
                JOINT lPinky2
                {
                  OFFSET 1.82734 -0.647385 -0.700984
                  CHANNELS 3 Zrotation Xrotation Yrotation
                  End Site
                  {
                    OFFSET 1.69225 -0.51767 -0.607171
                  }
                }
              }
            }
          }
        }
      }
    }
  }
  JOINT rButtock
  {
    OFFSET -8.77824 4.35084 1.2192
    CHANNELS 3 Zrotation Xrotation Yrotation
    JOINT rThigh
    {
      OFFSET 0 -1.70687 -2.19456
      CHANNELS 3 Zrotation Xrotation Yrotation
      JOINT rShin
      {
        OFFSET 0 -36.8199 0.73152
        CHANNELS 3 Zrotation Xrotation Yrotation
        JOINT rFoot
        {
          OFFSET 0.73152 -45.1104 -5.12064
          CHANNELS 3 Zrotation Xrotation Yrotation
          End Site
          {
            OFFSET -1.1221 -3.69964 12.103
          }
        }
      }
    }
  }
  JOINT lButtock
  {
    OFFSET 8.77824 4.35084 1.2192
    CHANNELS 3 Zrotation Xrotation Yrotation
    JOINT lThigh
    {
      OFFSET 0 -1.70687 -2.19456
      CHANNELS 3 Zrotation Xrotation Yrotation
      JOINT lShin
      {
        OFFSET 0 -36.8199 0.73152
        CHANNELS 3 Zrotation Xrotation Yrotation
        JOINT lFoot
        {
          OFFSET -0.73152 -45.1104 -5.12064
          CHANNELS 3 Zrotation Xrotation Yrotation
          End Site
          {
            OFFSET 1.1221 -3.69964 12.103
          }
        }
      }
    }
  }
}
MOTION
Frames:	4
Frame Time:	0.00833333
-0.973716 83.4115 39.8568 -1.0478 5.9688 -3.0529 0.821631 6.89112 3.6213 -0.253815 -9.29122 1.04434 -0.198464 6.43166 -3.35403 -3.14576 -16.4149 -7.06787 -0.0 0.0 0.0 -0.0 0.0 0.0 3.62963e-14 3.17978e-15 1.44815e-13 36.8875 8.11633 2.45314 -27.7444 -41.5925 86.8259 -7.45589 -58.5179 -13.2678 -1.84769e-09 -4.80677e-09 3.97999e-10 -3.1938e-09 -8.44997e-09 5.95304e-10 -1.84769e-09 -4.80679e-09 3.97976e-10 7.73091 5.47488 0.417314 -1.8477e-09 -4.80679e-09 3.97996e-10 2.90554 0.965183 0.102902 -1.84769e-09 -4.80679e-09 3.98001e-10 10.2786 0.731801 0.0259123 -1.8477e-09 -4.80676e-09 3.98008e-10 2.22167 -0.733487 -0.20892 3.60637e-14 3.17978e-15 1.44566e-13 -87.9329 20.1162 19.9577 19.459 -12.3464 -37.3824 0.0316816 5.0741 -0.715007 -1.04247e-09 -2.37335e-09 3.56566e-10 -1.80217e-09 -4.10764e-09 6.24369e-10 -1.04247e-09 -2.37335e-09 3.56578e-10 -7.73091 5.47488 -0.417314 -1.04246e-09 -2.37335e-09 3.56569e-10 -2.90554 0.965183 -0.102902 -1.04247e-09 -2.37335e-09 3.56571e-10 -10.2786 0.731801 -0.0259123 -1.04246e-09 -2.37335e-09 3.56562e-10 -2.22167 -0.733487 0.20892 -2.03217e-16 0.0 -3.88251e-19 -21.2901 -3.51665 -0.0244421 -0.00349973 0.1353 -0.0308011 0.399281 3.38214 -0.00224307 2.03217e-16 0.0 3.88251e-19 6.66634 -6.76896 -2.51831 0.117748 26.6363 -0.547883 0.792525 -17.0492 3.70891
-0.94327 83.4022 39.9031 -1.0457 5.7486 -3.1254 0.768214 6.80145 3.5811 -0.240666 -9.21041 1.0328 -0.203959 6.30691 -3.28634 -3.07218 -16.1019 -6.91187 -0.0 0.0 0.0 -0.0 0.0 0.0 3.35936e-14 1.75365e-14 1.39947e-13 37.2245 8.01661 2.38299 -27.7435 -41.5958 86.8322 -7.37667 -58.3417 -13.1749 -1.68271e-09 -4.35224e-09 3.62944e-10 -2.90835e-09 -7.6523e-09 5.42439e-10 -1.68271e-09 -4.35226e-09 3.6292e-10 7.73091 5.47488 0.417314 -1.68271e-09 -4.35226e-09 3.62939e-10 2.90554 0.965183 0.102902 -1.68271e-09 -4.35226e-09 3.62945e-10 10.2786 0.731801 0.0259123 -1.68272e-09 -4.35224e-09 3.62954e-10 2.22167 -0.733487 -0.20892 3.3413e-14 1.75355e-14 1.39669e-13 -87.8611 20.0553 19.9072 19.4478 -12.3328 -37.3559 0.0321898 5.11416 -0.720682 -9.15725e-10 -2.03032e-09 3.34517e-10 -1.58264e-09 -3.51363e-09 5.85522e-10 -9.15728e-10 -2.03031e-09 3.34528e-10 -7.73091 5.47488 -0.417314 -9.15722e-10 -2.03031e-09 3.34519e-10 -2.90554 0.965183 -0.102902 -9.15727e-10 -2.03031e-09 3.34522e-10 -10.2786 0.731801 -0.0259123 -9.15716e-10 -2.03031e-09 3.34513e-10 -2.22167 -0.733487 0.20892 -2.03217e-16 0.0 -3.88251e-19 -21.2887 -3.51896 -0.0245134 -0.0035547 0.131004 -0.0312873 0.39673 3.38877 -0.00179501 2.03217e-16 0.0 3.88251e-19 6.61793 -6.62014 -2.4804 0.117456 26.6316 -0.548766 0.845765 -17.1552 3.83951
-0.912898 83.3947 39.9528 -1.0289 5.5407 -3.215 0.733181 6.73136 3.54657 -0.234156 -9.1241 1.02251 -0.241955 6.16179 -3.2233 -2.97326 -15.7522 -6.75531 -0.0 0.0 0.0 -0.0 0.0 0.0 2.31472e-14 4.30877e-14 1.26061e-13 37.5552 7.88692 2.31618 -27.7451 -41.5893 86.8205 -7.27819 -58.1193 -13.059 -1.33545e-09 -3.40676e-09 3.09428e-10 -2.30875e-09 -5.9946e-09 4.66141e-10 -1.33544e-09 -3.40677e-09 3.09403e-10 7.73091 5.47488 0.417314 -1.33545e-09 -3.40677e-09 3.09421e-10 2.90554 0.965183 0.102902 -1.33545e-09 -3.40677e-09 3.09427e-10 10.2786 0.731801 0.0259123 -1.33545e-09 -3.40676e-09 3.09438e-10 2.22167 -0.733487 -0.20892 2.30656e-14 4.30853e-14 1.2575e-13 -87.7977 20.0211 19.8521 19.4426 -12.3265 -37.3434 0.0325799 5.14501 -0.725053 -6.18872e-10 -1.35309e-09 3.43252e-10 -1.06857e-09 -2.34113e-09 5.99148e-10 -6.18874e-10 -1.35308e-09 3.43261e-10 -7.73091 5.47488 -0.417314 -6.1887e-10 -1.35309e-09 3.43251e-10 -2.90554 0.965183 -0.102902 -6.18873e-10 -1.35309e-09 3.43255e-10 -10.2786 0.731801 -0.0259123 -6.18866e-10 -1.35309e-09 3.43247e-10 -2.22167 -0.733487 0.20892 -2.03217e-16 0.0 -3.88251e-19 -21.2876 -3.52157 -0.0245841 -0.00361399 0.126169 -0.0318115 0.394307 3.39624 -0.00135442 2.03217e-16 0.0 3.88251e-19 6.5718 -6.45375 -2.45412 0.117209 26.6283 -0.550029 0.906324 -17.2724 3.98816
-0.881396 83.3872 39.9994 -1.0089 5.3196 -3.2935 0.700447 6.65506 3.51426 -0.229856 -9.03143 1.01269 -0.282763 6.01845 -3.16598 -2.88424 -15.3932 -6.61097 -0.0 0.0 0.0 -0.0 0.0 0.0 1.02923e-14 6.81667e-14 1.10829e-13 37.8756 7.74532 2.26304 -27.7494 -41.5716 86.7877 -7.17372 -57.8792 -12.9358 -9.3803e-10 -2.32762e-09 2.55323e-10 -1.62296e-09 -4.10322e-09 3.91331e-10 -9.38024e-10 -2.32763e-09 2.55297e-10 7.73091 5.47488 0.417314 -9.38023e-10 -2.32762e-09 2.55314e-10 2.90554 0.965183 0.102902 -9.38023e-10 -2.32763e-09 2.55321e-10 10.2786 0.731801 0.0259123 -9.38031e-10 -2.32762e-09 2.55333e-10 2.22167 -0.733487 -0.20892 1.0309e-14 6.8163e-14 1.10492e-13 -87.7383 20.0012 19.7946 19.4397 -12.3231 -37.3366 0.0328956 5.17001 -0.728595 -2.88953e-10 -6.32883e-10 3.61349e-10 -4.9732e-10 -1.09427e-09 6.28802e-10 -2.88954e-10 -6.32874e-10 3.61356e-10 -7.73091 5.47488 -0.417314 -2.88951e-10 -6.32876e-10 3.61347e-10 -2.90554 0.965183 -0.102902 -2.88952e-10 -6.32876e-10 3.6135e-10 -10.2786 0.731801 -0.0259123 -2.8895e-10 -6.32875e-10 3.61343e-10 -2.22167 -0.733487 0.20892 -2.03217e-16 0.0 -3.88251e-19 -21.2866 -3.52375 -0.0246484 -0.00367128 0.120431 -0.0323181 0.391774 3.40418 -0.000891608 2.03217e-16 0.0 3.88251e-19 6.52583 -6.2808 -2.42309 0.116919 26.6188 -0.55122 0.967241 -17.388 4.13658
